<?xml version="1.0" encoding="UTF-8"?>
<svg xmlns="http://www.w3.org/2000/svg" width="768" height="768" viewBox="0 0 768 768">
  <defs>
    <linearGradient id="cameraBodyGradient" x1="0%" y1="0%" x2="100%" y2="100%">
      <stop offset="0%" stop-color="#1e3a8a"/>
      <stop offset="100%" stop-color="#1565c0"/>
    </linearGradient>

    <radialGradient id="lensGradient" cx="0.5" cy="0.5" r="0.5">
      <stop offset="0%" stop-color="#e0f2f1"/>
      <stop offset="100%" stop-color="#90a4ae"/>
    </radialGradient>

    <radialGradient id="sunGradient" cx="0.5" cy="0.5" r="0.5">
      <stop offset="0%" stop-color="#ffeb3b"/>
      <stop offset="100%" stop-color="#ffb300"/>
    </radialGradient>
  </defs>

  <!-- Camera body -->
  <rect x="144" y="216" width="480" height="336" rx="48" ry="48" fill="url(#cameraBodyGradient)"/>

  <!-- Camera top hump -->
  <rect x="288" y="144" width="192" height="96" rx="24" ry="24" fill="url(#cameraBodyGradient)"/>

  <!-- Lens -->
  <circle cx="480" cy="384" r="108" fill="url(#lensGradient)" stroke="#263238" stroke-width="18"/>

  <!-- Flare / Light Source -->
  <circle cx="240" cy="240" r="48" fill="url(#sunGradient)"/>
  <g stroke="#ffca28" stroke-width="12" stroke-linecap="round">
    <line x1="240" y1="162" x2="240" y2="138"/>
    <line x1="240" y1="342" x2="240" y2="366"/>
    <line x1="162" y1="240" x2="138" y2="240"/>
    <line x1="342" y1="240" x2="366" y2="240"/>
    <line x1="185" y1="185" x2="168" y2="168"/>
    <line x1="295" y1="185" x2="312" y2="168"/>
    <line x1="185" y1="295" x2="168" y2="312"/>
    <line x1="295" y1="295" x2="312" y2="312"/>
  </g>
</svg>
