<?xml version="1.0" encoding="UTF-8"?>
<svg xmlns="http://www.w3.org/2000/svg" width="512" height="512" viewBox="0 0 512 512">
  <defs>
    <!-- Gradient for the colorful lens -->
    <radialGradient id="lensGradient" cx="0.5" cy="0.5" r="0.5">
      <stop offset="0%"   stop-color="#ff00ff"/>
      <stop offset="20%"  stop-color="#8000ff"/>
      <stop offset="40%"  stop-color="#0040ff"/>
      <stop offset="60%"  stop-color="#00ffff"/>
      <stop offset="80%"  stop-color="#00ff40"/>
      <stop offset="100%" stop-color="#ffff00"/>
    </radialGradient>

    <!-- Gradient for the sun flare -->
    <radialGradient id="sunGradient" cx="0.5" cy="0.5" r="0.5">
      <stop offset="0%"   stop-color="#ffeb3b"/>
      <stop offset="100%" stop-color="#ff9800"/>
    </radialGradient>
  </defs>

  <!-- Camera body -->
  <rect x="48" y="96" width="416" height="320" rx="32" ry="32" fill="#03a9f4" opacity="0.9"/>

  <!-- Camera top hump -->
  <rect x="192" y="48" width="128" height="64" rx="12" ry="12" fill="#03a9f4" opacity="0.9"/>

  <!-- Lens -->
  <circle cx="368" cy="256" r="112" fill="url(#lensGradient)"/>

  <!-- Lens highlight -->
  <circle cx="396" cy="228" r="24" fill="#ffffff" opacity="0.35"/>

  <!-- Direction arrows -->
  <g fill="none" stroke="#00e5ff" stroke-width="12" stroke-linecap="round" stroke-linejoin="round">
    <line x1="144" y1="208" x2="288" y2="208"/>
    <polyline points="264 184 288 208 264 232"/>
    <line x1="144" y1="304" x2="288" y2="304"/>
    <polyline points="264 280 288 304 264 328"/>
  </g>

  <!-- Sun flare -->
  <circle cx="112" cy="128" r="48" fill="url(#sunGradient)"/>

  <!-- Sun rays -->
  <g stroke="#ff9800" stroke-width="10" stroke-linecap="round">
    <line x1="112" y1="52"  x2="112" y2="20"/>
    <line x1="112" y1="236" x2="112" y2="204"/>
    <line x1="36"  y1="128" x2="4"   y2="128"/>
    <line x1="220" y1="128" x2="252" y2="128"/>
    <line x1="64"  y1="80"  x2="40"  y2="56"/>
    <line x1="160" y1="80"  x2="184" y2="56"/>
    <line x1="64"  y1="176" x2="40"  y2="200"/>
    <line x1="160" y1="176" x2="184" y2="200"/>
  </g>
</svg>
