<?xml version="1.0" encoding="UTF-8"?>
<svg xmlns="http://www.w3.org/2000/svg" width="512" height="512" viewBox="0 0 512 512">
  <defs>
    <!-- Gradient for the camera body -->
    <linearGradient id="cameraBodyGradient" x1="0%" y1="0%" x2="100%" y2="100%">
      <stop offset="0%" stop-color="#ff9800"/>
      <stop offset="100%" stop-color="#e91e63"/>
    </linearGradient>

    <!-- Gradient for the sun -->
    <radialGradient id="sunGradient" cx="0.5" cy="0.5" r="0.5">
      <stop offset="0%"   stop-color="#ffeb3b"/>
      <stop offset="100%" stop-color="#ff9800"/>
    </radialGradient>
  </defs>

  <!-- Camera body -->
  <rect x="48" y="96" width="416" height="320" rx="32" ry="32" fill="url(#cameraBodyGradient)" opacity="1.0"/>

  <!-- Camera top hump -->
  <rect x="192" y="48" width="128" height="64" rx="12" ry="12" fill="#7e57c2"/>

  <!-- Lens (neutral dark gray) -->
  <circle cx="368" cy="256" r="112" fill="#424242"/>

  <!-- Lens highlight -->
  <circle cx="396" cy="228" r="24" fill="#ffffff" opacity="0.2"/>

  <!-- Direction arrow -->
  <polygon points="160,248 240,248 240,224 288,256 240,288 240,264 160,264" fill="#7e57c2"/>

  <!-- Sun flare -->
  <circle cx="112" cy="128" r="48" fill="url(#sunGradient)"/>

  <!-- Sun rays -->
  <g stroke="#ff9800" stroke-width="10" stroke-linecap="round">
    <line x1="112" y1="52"  x2="112" y2="20"/>
    <line x1="112" y1="236" x2="112" y2="204"/>
    <line x1="36"  y1="128" x2="4"   y2="128"/>
    <line x1="220" y1="128" x2="252" y2="128"/>
    <line x1="64"  y1="80"  x2="40"  y2="56"/>
    <line x1="160" y1="80"  x2="184" y2="56"/>
    <line x1="64"  y1="176" x2="40"  y2="200"/>
    <line x1="160" y1="176" x2="184" y2="200"/>
  </g>
</svg>
