
<svg width="512" height="512" viewBox="0 40 256 180" xmlns="http://www.w3.org/2000/svg">
  <defs>
    <!-- Gradients -->
    <linearGradient id="frameGrad" x1="0%" y1="0%" x2="100%" y2="100%">
      <stop offset="0%" stop-color="#2e3192"/>
      <stop offset="100%" stop-color="#1bffff"/>
    </linearGradient>
    <linearGradient id="mountGrad" x1="0%" y1="0%" x2="100%" y2="0%">
      <stop offset="0%" stop-color="#7F00FF"/>
      <stop offset="100%" stop-color="#E100FF"/>
    </linearGradient>
    <linearGradient id="skyGrad" x1="0%" y1="0%" x2="0%" y2="100%">
      <stop offset="0%" stop-color="#00d2ff"/>
      <stop offset="100%" stop-color="#3a7bd5"/>
    </linearGradient>
    <radialGradient id="sunGrad" cx="50%" cy="50%" r="70%">
      <stop offset="0%" stop-color="#FFF176"/>
      <stop offset="65%" stop-color="#FFD54F"/>
      <stop offset="100%" stop-color="#FF8F00"/>
    </radialGradient>
    <linearGradient id="rayGrad" x1="0%" y1="0%" x2="100%" y2="100%">
      <stop offset="0%" stop-color="#FFF59D" stop-opacity="0.95"/>
      <stop offset="100%" stop-color="#FF6F00" stop-opacity="0.0"/>
    </linearGradient>
    <radialGradient id="glowGrad" cx="50%" cy="50%" r="50%">
      <stop offset="0%" stop-color="#ffffff" stop-opacity="0.8"/>
      <stop offset="100%" stop-color="#ffffff" stop-opacity="0"/>
    </radialGradient>

    <!-- Vibrant gradient for arrows -->
    <linearGradient id="arrowGrad" x1="0%" y1="0%" x2="100%" y2="100%">
      <stop offset="0%" stop-color="#FF6B35"/>
      <stop offset="50%" stop-color="#FFCD38"/>
      <stop offset="100%" stop-color="#FF3D00"/>
    </linearGradient>

    <!-- Arrowhead marker (smaller) -->
    <marker id="arrowHead" markerWidth="6" markerHeight="6" refX="5" refY="3" orient="auto-start-reverse">
      <path d="M0,0 L6,3 L0,6 z" fill="url(#arrowGrad)"/>
    </marker>

    <!-- Clip-path for inside of photo frame -->
    <clipPath id="photoClip">
      <rect x="24" y="48" rx="14" ry="14" width="160" height="120"/>
    </clipPath>
  </defs>

  <!-- Wrap everything with a group and shift to center -->
  <g transform="translate(0,18)">

    <!-- Photo frame (represents the image/camera) -->
    <rect x="16" y="40" rx="18" ry="18" width="176" height="136" fill="none" stroke="url(#frameGrad)" stroke-width="8"/>

    <!-- Image content inside the frame -->
    <g clip-path="url(#photoClip)">
      <!-- Sky -->
      <rect x="24" y="48" width="160" height="120" fill="url(#skyGrad)"/>
      <!-- Mountains -->
      <path d="M40 156 L80 96 L110 140 L128 120 L168 156 Z" fill="url(#mountGrad)"/>
      <path d="M24 156 L58 120 L80 144 L90 132 L120 156 Z" fill="#FF6CAB" opacity="0.8"/>

      <!-- Flare circles -->
      <circle cx="84" cy="110" r="7" fill="url(#glowGrad)" filter="url(#softGlow)"/>
      <circle cx="104" cy="126" r="5" fill="url(#glowGrad)" filter="url(#softGlow)"/>
      <circle cx="128" cy="140" r="9" fill="url(#glowGrad)" filter="url(#softGlow)"/>
    </g>

    <!-- Sun positioned OUTSIDE the frame -->
    <g transform="translate(178, 36)">
      <circle cx="30" cy="30" r="22" fill="url(#sunGrad)" filter="url(#softGlow)"/>
      <g stroke="#FFC107" stroke-width="4" stroke-linecap="round">
        <line x1="30" y1="-2" x2="30" y2="-14"/>
        <line x1="30" y1="62" x2="30" y2="74"/>
        <line x1="-2" y1="30" x2="-14" y2="30"/>
        <line x1="62" y1="30" x2="74" y2="30"/>
        <line x1="10" y1="10" x2="2" y2="2"/>
        <line x1="50" y1="50" x2="58" y2="58"/>
        <line x1="10" y1="50" x2="2" y2="58"/>
        <line x1="50" y1="10" x2="58" y2="2"/>
      </g>
    </g>

    <!-- Rays INTO the photo -->
    <g stroke="url(#rayGrad)" stroke-width="10" stroke-linecap="round" filter="url(#softGlow)">
      <line x1="208" y1="70" x2="160" y2="108"/>
      <line x1="208" y1="90" x2="140" y2="134"/>
      <line x1="208" y1="110" x2="122" y2="152"/>
      <line x1="200" y1="58" x2="168" y2="86"/>
      <line x1="200" y1="128" x2="132" y2="160"/>
    </g>

    <!-- Rays inside the photo only -->
    <g clip-path="url(#photoClip)" stroke="url(#rayGrad)" stroke-width="10" stroke-linecap="round" filter="url(#softGlow)">
      <line x1="180" y1="96" x2="132" y2="134"/>
      <line x1="172" y1="86" x2="144" y2="112"/>
      <line x1="168" y1="120" x2="120" y2="150"/>
    </g>

    <!-- OUTPAINT ARROWS -->
    <!-- Top -->
    <path d="M104,49 L104,34 M104,34 L99,39 M104,34 L109,39" 
          stroke="url(#arrowGrad)" stroke-width="2" fill="none"/>
    <!-- Bottom -->
    <path d="M104,167 L104,182 M104,182 L99,177 M104,182 L109,177" 
          stroke="url(#arrowGrad)" stroke-width="2" fill="none"/>
    <!-- Left -->
    <path d="M25,108 L10,108 M10,108 L15,103 M10,108 L15,113" 
          stroke="url(#arrowGrad)" stroke-width="2" fill="none"/>
    <!-- Right -->
    <path d="M183,108 L198,108 M198,108 L193,103 M198,108 L193,113" 
          stroke="url(#arrowGrad)" stroke-width="2" fill="none"/>
  </g>
</svg>
