<?xml version="1.0" encoding="UTF-8"?>
<svg width="750" height="1024" viewBox="0 0 750 1024" xmlns="http://www.w3.org/2000/svg">
  <defs>
    <!-- Sun radial gradient (bright center to warm edges) -->
    <radialGradient id="sunGrad" cx="40%" cy="35%" r="60%">
      <stop offset="0%" stop-color="#ffffff"/>
      <stop offset="30%" stop-color="#fff7c9"/>
      <stop offset="65%" stop-color="#ffd36a"/>
      <stop offset="100%" stop-color="#ffb347"/>
    </radialGradient>

    <!-- Flare gradient: white to soft yellow -->
    <linearGradient id="flareGrad" x1="0%" y1="0%" x2="100%" y2="100%">
      <stop offset="0%" stop-color="#f4ec8bff" stop-opacity="1"/>
      <stop offset="100%" stop-color="#ffb347" stop-opacity="1"/>
    </linearGradient>

    <!-- gentle glow filter -->
    <filter id="glow" x="-60%" y="-60%" width="220%" height="220%">
      <feGaussianBlur in="SourceGraphic" stdDeviation="12" result="blur"/>
      <feMerge>
        <feMergeNode in="blur"/>
        <feMergeNode in="SourceGraphic"/>
      </feMerge>
    </filter>
  </defs>

  <!-- transparent background -->
  <rect width="100%" height="100%" fill="none"/>

  <!-- Sun with glow (top-right, overlapping camera) -->
  <!-- Flare group放在camera group之後，確保圖層順序在上方 -->

  <!-- Camera group -->


  <!-- Camera body (center-left area, proportions similar to the image preview) -->
  <g id="camera" transform="translate(96,280)">
  <!-- top hump (viewfinder area) -->
  <!-- main body -->
  <!-- small left bump (thumb/shutter area) -->
    <!--path d="M176 40 L304 40 L352 80 L448 80 L480 120 L480 160 L448 160 L416 120 L352 120 L320 80 L176 80 Z" fill="#B0B0B0"/-->
    <rect x="50" y="69" rx="16" ry="16" width="96" height="56" fill="#B0B0B0" stroke="#000" stroke-width="10"/>
    
    <rect x="0" y="114" rx="16" ry="16" width="560" height="114" fill="#B0B0B0" stroke="#000" stroke-width="10"/>
    <rect x="0" y="194" rx="36" ry="0" width="560" height="286" fill="#d79a8d" stroke="#000" stroke-width="10"/>
    <rect x="425" y="140" rx="0" ry="0" width="75" height="35" fill="#98c7e1ff" stroke="#000" stroke-width="7"/>

    <circle cx="93" cy="150" r="20" fill="#c8615cff" stroke="#111" stroke-width="8" />
    <path
    d="M146,290
       Q140,290 140,284
       L220,70
       Q220,52 240,52
       L320,52
       Q340,52 340,70
       L420,284
       Q420,290 414,290
       Z"
    fill="#fff"
    stroke="#000"
    stroke-width="10"
  />
  

  <!-- outer white ring -->
  <circle cx="280" cy="290" r="140" fill="#ffffff" stroke="#000" stroke-width="10" />
  <!-- inner black ring -->
  <circle cx="280" cy="290" r="100" fill="#0b0b0b"/>
  <!-- lens center (white disc to match preview) -->
  <circle cx="280" cy="290" r="64" fill="#ffffff" opacity="0.96"/>
  <circle cx="280" cy="290" r="24" fill="#7ea3ad" stroke="#111" stroke-width="8" />

  </g>

  <!-- Flare group (sun+flare) -->
  <g filter="url(#glow)">
    <!-- Sun -->
    <circle cx="650" cy="240" r="64" fill="url(#sunGrad)"/>
    <!-- Flare (部分重疊 camera) -->
  <g>
    <g transform="rotate(150 540 270)">
      <rect x="540" y="270" width="120" height="27" rx="11" ry="11" fill="url(#flareGrad)" stroke="#ffffffff" stroke-width="10"/>
    </g>
    <g transform="rotate(130 580 320)">
      <rect x="580" y="320" width="150" height="22" rx="9" ry="9" fill="url(#flareGrad)"  stroke="#ffffffff" stroke-width="10"/>
    </g>
    <g transform="rotate(110 635 352)">
      <rect x="635" y="352" width="200" height="20" rx="8" ry="8" fill="url(#flareGrad)" stroke="#ffffffff" stroke-width="10"/>
    </g>
  </g>
  </g>
  <!-- subtle highlight where flare lightly meets camera top (very faint) -->
  <ellipse cx="700" cy="360" rx="60" ry="18" fill="#ffffff" opacity="0.03" transform="rotate(-22 700 360)"/>
</svg>
